<?xml version="1.0" encoding="utf-8"?>
<!-- Generator: Adobe Illustrator 22.0.1, SVG Export Plug-In . SVG Version: 6.00 Build 0)  -->
<svg version="1.1" id="Layer_1" xmlns="http://www.w3.org/2000/svg" xmlns:xlink="http://www.w3.org/1999/xlink" x="0px" y="0px"
	 viewBox="0 0 1440 717" style="enable-background:new 0 0 1440 717;" xml:space="preserve">
<style type="text/css">
	.st0{fill:url(#SVGID_1_);}
	.st1{opacity:0.7;}
	.st2{opacity:0.31;fill:#FFFFFF;fill-opacity:0.4;enable-background:new    ;}
	.st3{opacity:0.4;fill:#0092FF;fill-opacity:0.2;enable-background:new    ;}
	.st4{opacity:0.1;fill:#A286FF;enable-background:new    ;}
	.st5{display:none;}
	.st6{display:inline;}
</style>
<g id="Layer_5">
	<g>
		<linearGradient id="SVGID_1_" gradientUnits="userSpaceOnUse" x1="720" y1="9.997559e-02" x2="720" y2="713.5">
			<stop  offset="0" style="stop-color:#5A72FF"/>
			<stop  offset="1" style="stop-color:#4D3BF7"/>
		</linearGradient>
		<path class="st0" d="M1440,0.1V399c-0.3,0.1-0.6,0.2-0.9,0.3c-149,49-234.4,38.7-314.7,30.1c-0.1,0-0.1,0-0.2,0h-0.1
			c-54.8-5.8-107.3-10.8-176.1,4.4c-92.3,20.4-155.4,71.3-234,104.1c0,0-0.1,0-0.2,0.1c0,0-0.1,0-0.1,0
			c-67.8,28.4-147.1,43.1-266.7,13.5c-14-3.5-27.2-6.1-39.8-7.9c-0.1,0-0.2,0-0.2,0c-0.1,0-0.2,0-0.3-0.1
			c-94.2-13.6-147.4,17.3-197.4,56.6c-28.6,22.5-56.2,47.8-89.8,69.1c-0.2,0.1-0.3,0.2-0.5,0.3c-13.5,8.5-27.9,16.4-43.8,23.2
			c-0.2,0.1-0.3,0.1-0.5,0.2c-0.1,0-0.2,0.1-0.3,0.1c-21.6,9.2-46,16.4-74.3,20.5H0l0-44l0.1-482.8l0-186.6H1440z"/>
		<g transform="translate(-169 -107)">
			<g class="st1">
				<path class="st2" d="M1609,107.1V506c-0.3,0.1-0.6,0.2-0.9,0.3c-149,49-234.4,38.7-314.7,30.1c0,0-0.1,0-0.1,0.1l-0.1,0.1
					c-70.1,55-121.1,98.8-218.7,119.8c-66.1,14.2-128.6,2.6-191.4-11.3c0,0-0.1,0-0.2,0c-0.1,0-0.2,0-0.2,0
					c-67.8,28.4-147.1,43.1-266.7,13.5c-14-3.5-27.2-6.1-39.8-7.9c0,0-0.1,0-0.1,0.1c-0.1,0-0.2,0.1-0.3,0.1
					c-16.6,8-33.5,17.8-50.8,29.6c-14.1,9.6-27.3,18.5-39.9,26.8c-49.9,32.7-89.2,54.9-125.5,69.3H169V293.8l0.1-0.1l0-0.1l0.1-0.2
					l0.1-0.2l27-65.9c25.1-61.2,78.2-105.4,140.9-120.2H1609z"/>
				<path class="st3" d="M1609,475.9V506c-0.3,0.1-0.6,0.2-0.9,0.3c-149,49-234.4,38.7-314.7,30.1c0,0-0.1,0-0.1,0.1l-0.1,0.1
					c-70.1,55-121.1,98.8-218.7,119.8c-66.1,14.2-128.6,2.6-191.4-11.3c0,0-0.1,0-0.2,0c-0.1,0-0.2,0-0.2,0
					c-67.8,28.4-147.1,43.1-266.7,13.5c-14-3.5-27.2-6.1-39.8-7.9c0,0-0.1,0-0.1,0.1c-0.1,0-0.2,0.1-0.3,0.1
					c-16.6,8-33.5,17.8-50.8,29.6c-14.1,9.6-27.3,18.5-39.9,26.8c-49.9,32.7-89.2,54.9-125.5,69.3c-0.1,0-0.2,0.1-0.2,0.1
					c-38.8,15.4-74,22.1-115,23.4h-0.6c-0.1,0-0.2,0-0.4,0c-21.6,9.2-46,16.4-74.3,20.5V475.9H1609z"/>
			</g>
		</g>
		<path class="st4" d="M1440,0.1v244.5c-0.3,0.2-0.6,0.3-0.9,0.5c-12.1,7.1-25.8,14-41.2,20.7c-78.4,33.5-137,66.8-184.4,98.2
			c-2.4,1.6-4.9,3.2-7.2,4.9c-31.4,21.2-57.7,41.4-81.9,60.5c0,0-0.1,0-0.1,0.1l-0.1,0.1c-70.1,55-121.1,98.8-218.7,119.8
			c-66.1,14.2-128.6,2.6-191.4-11.3c0,0-0.1,0-0.2,0c-0.1,0-0.2,0-0.2,0c-96.9-21.6-194.3-48.5-306.4,5.6c0,0-0.1,0-0.1,0.1
			c-0.1,0-0.2,0.1-0.3,0.1c-16.6,8-33.5,17.8-50.8,29.6c-14.1,9.6-27.3,18.5-39.9,26.8c-49.9,32.7-89.2,54.9-125.5,69.3
			c-0.1,0-0.2,0.1-0.2,0.1c-38.8,15.4-74,22.1-115,23.4h-0.6c-0.1,0-0.2,0-0.4,0c-22.5,0.7-46.7-0.2-74.2-2.2V0.1H1440z"/>
	</g>
</g>
<g id="Layer_1_1_">
</g>
<g id="Layer_4">
</g>
<g id="Layer_2_1_" class="st5">
	<path class="st6" d="M1043,404.7c-2.2-0.3-4.4-0.5-6.6-0.8c-0.3,0-0.5,0.2-0.5,0.5c-0.1,0-0.1,0.1-0.2,0.2l0,0l-0.1,0.1
		c-0.2,0.2-0.2,0.4-0.1,0.6c-0.3,1.3-0.8,2.4-1.6,3.5c-0.4,0.5,0.5,1,0.9,0.5c1-1.3,1.6-2.8,1.9-4.3c0,0,0,0,0-0.1
		c2.1,0.3,4.3,0.5,6.4,0.8C1043.7,405.8,1043.7,404.8,1043,404.7z"/>
	<path class="st6" d="M1040.2,407c0.3-0.6-0.5-1.1-0.9-0.5c-0.9,1.6-2.1,2.9-3.5,4.1c-0.6-0.2-1.2-0.5-1.8-0.7
		c-0.6-0.2-0.9,0.7-0.3,1c0.5,0.2,0.9,0.4,1.4,0.5c0,0.4,0.3,0.7,0.7,0.5c0.1,0,0.1-0.1,0.2-0.1c0.3,0.1,0.6,0.2,0.8,0.3
		c0.6,0.2,0.9-0.7,0.3-1c-0.1,0-0.2-0.1-0.2-0.1C1038.2,409.8,1039.3,408.5,1040.2,407z"/>
	<path class="st6" d="M1027.9,404.4c-3.2-2.6-6.4-5.2-10.4-6.2c0.7-0.4,1.3-0.9,2-1.3c2.3,0.4,4.3,2.6,5.8,4.3
		c0.4,0.5,1.1-0.2,0.7-0.7c-1.5-1.7-3.3-3.7-5.5-4.4c0.1-0.4-0.3-0.8-0.7-0.5c-0.2,0.1-0.3,0.2-0.5,0.3c-0.1,0-0.2,0-0.3,0
		c-0.3,0-0.5,0.3-0.5,0.5c-0.6,0.4-1.2,0.8-1.7,1.1c-0.2,0.1-0.3,0.3-0.2,0.5c-0.2,0.1-0.3,0.3-0.4,0.5l0,0
		c-0.3-0.6-1.1-0.1-0.9,0.5l8.9,18c0.3,0.6,1.1,0.1,0.9-0.5c-2.9-5.8-5.8-11.7-8.7-17.5c0,0,0.1,0,0.1,0.1c4.2,0.8,7.5,3.4,10.7,6.1
		C1027.7,405.5,1028.4,404.8,1027.9,404.4z"/>
	<path class="st6" d="M1050.3,416.8c-1.7-4.2-3.3-8.4-4.6-12.7c0.5,0.2,1.1,0.3,1.6,0.5c0.6,0.2,0.9-0.8,0.3-1
		c-0.8-0.3-1.5-0.5-2.3-0.7c-0.1-0.1-0.3-0.2-0.5-0.1c-5.7-1.5-11.6-1.5-17.4,0.1c-0.6,0.2-0.4,1.1,0.3,1c5.6-1.5,11.3-1.5,16.9,0
		c1.4,4.5,3,9,4.8,13.3C1049.6,417.6,1050.5,417.4,1050.3,416.8z"/>
	<path class="st6" d="M1052.5,417.7c-6.1-0.4-12,1-17.3,4c-1.8-1.3-3.6-2.6-5.7-3.3c0-0.1,0-0.2-0.1-0.2c0-0.9,0-1.9,0-2.8
		c0.7,0.7,1.4,1.3,2.3,1.8c0.2,0.1,0.4,0.1,0.5,0c0.2,0.1,0.4,0.2,0.6,0c1.2-1.2,2.5-2.1,4-2.8c0.6,1.5,1.3,3,2.2,4.5
		c0.3,0.6,1.2,0.1,0.9-0.5c-0.9-1.5-1.7-3.1-2.3-4.8c-0.1-0.3-0.4-0.4-0.7-0.3c-1.8,0.7-3.3,1.8-4.7,3.1l0,0
		c-1.1-0.7-2.1-1.5-2.9-2.5c-0.2-0.5-1-0.5-1,0.1c0.1,1.4,0.1,2.8,0.1,4.3c-0.9-0.2-1.9-0.3-3-0.1c-0.6,0.1-0.6,1.1,0,1
		c1-0.1,2,0,2.9,0.2c-0.2,0.8-0.4,1.8-0.2,2.4c0.2,0.6,0.9,1.1,1.4,1.4c1.9,1.5,4.2,2.4,6.6,2.8c0.1,0.2,0.2,0.3,0.5,0.3
		c0.8-0.1,1.4-0.5,2-0.9c0.8-0.5,1.6-1.1,2.4-1.6c0.5-0.4,0-1.2-0.5-0.9c-0.6,0.4-1.3,0.9-1.9,1.3c-0.5,0.4-1.2,0.9-1.8,1
		c-0.1-0.1-0.2-0.2-0.3-0.2c-1.8-0.3-3.4-0.8-5-1.7c-0.7-0.4-1.8-0.9-2.2-1.6c-0.3-0.6-0.2-1.4,0-2.2c2,0.7,3.8,1.9,5.5,3.3
		c0.1,0.1,0.2,0.1,0.2,0.1c0.1,0,0.2,0,0.3-0.1c1.8-1.1,3.7-1.9,5.6-2.6c-0.1,0.3,0.1,0.6,0.5,0.6c0.5,0,0.6-0.6,0.3-0.9
		c3.4-1,7-1.5,10.7-1.2C1053.2,418.8,1053.2,417.8,1052.5,417.7z"/>
	<path class="st6" d="M1044.9,399.2c-0.1-0.1-0.2-0.1-0.4-0.2c-0.1-0.3-0.4-0.4-0.7-0.4c-0.8-0.4-1.5-0.8-2.3-1.1
		c0-0.3-0.1-0.6-0.5-0.6s-0.8,0-1.2,0c-0.3-0.1-0.5-0.2-0.8-0.3c-0.3-0.1-0.5,0.1-0.6,0.3c-3.9,0.1-7.6,0.9-11.3,2.5
		c-0.6,0.3-0.1,1.1,0.5,0.9c3.8-1.6,7.8-2.4,11.9-2.3c1.3,0.4,2.5,1,3.7,1.6c-0.1,0.6-0.2,1.2-0.4,1.8c-0.1,0.6,0.8,0.9,1,0.3
		l0.3-1.6l0,0C1045,400.4,1045.5,399.5,1044.9,399.2z"/>
</g>
</svg>
